<?xml version="1.0" encoding="UTF-8"?>
<svg version="1.1" xmlns="http://www.w3.org/2000/svg" width="182" height="203">
<path d="M0 0 C3.96 0 7.92 0 12 0 C12 0.66 12 1.32 12 2 C16.29 2 20.58 2 25 2 C25 2.66 25 3.32 25 4 C26.98 4 28.96 4 31 4 C31 4.66 31 5.32 31 6 C32.98 6 34.96 6 37 6 C37 6.66 37 7.32 37 8 C38.32 8 39.64 8 41 8 C41 8.66 41 9.32 41 10 C42.32 10 43.64 10 45 10 C45 10.99 45 11.98 45 13 C45.99 13 46.98 13 48 13 C48 13.66 48 14.32 48 15 C49.32 15 50.64 15 52 15 C52 15.66 52 16.32 52 17 C52.66 17 53.32 17 54 17 C54 17.66 54 18.32 54 19 C54.66 19 55.32 19 56 19 C56 19.66 56 20.32 56 21 C56.66 21 57.32 21 58 21 C58 21.66 58 22.32 58 23 C58.66 23 59.32 23 60 23 C60 23.66 60 24.32 60 25 C60.66 25 61.32 25 62 25 C62 25.66 62 26.32 62 27 C62.66 27 63.32 27 64 27 C64 27.66 64 28.32 64 29 C64.66 29 65.32 29 66 29 C66 30.32 66 31.64 66 33 C66.66 33 67.32 33 68 33 C68 33.66 68 34.32 68 35 C68.66 35 69.32 35 70 35 C70 36.65 70 38.3 70 40 C70.99 40 71.98 40 73 40 C73 41.32 73 42.64 73 44 C73.66 44 74.32 44 75 44 C75 66.77 75 89.54 75 113 C74.34 113 73.68 113 73 113 C73 114.32 73 115.64 73 117 C72.01 117 71.02 117 70 117 C70 118.32 70 119.64 70 121 C69.34 121 68.68 121 68 121 C68 122.32 68 123.64 68 125 C67.34 125 66.68 125 66 125 C66 126.32 66 127.64 66 129 C65.34 129 64.68 129 64 129 C64 130.32 64 131.64 64 133 C63.34 133 62.68 133 62 133 C62 133.66 62 134.32 62 135 C61.34 135 60.68 135 60 135 C60 136.65 60 138.3 60 140 C59.34 140 58.68 140 58 140 C58 141.32 58 142.64 58 144 C57.34 144 56.68 144 56 144 C56 144.66 56 145.32 56 146 C55.34 146 54.68 146 54 146 C54 147.32 54 148.64 54 150 C53.34 150 52.68 150 52 150 C52 150.66 52 151.32 52 152 C51.34 152 50.68 152 50 152 C50 153.32 50 154.64 50 156 C49.34 156 48.68 156 48 156 C48 156.66 48 157.32 48 158 C47.01 158 46.02 158 45 158 C45 159.65 45 161.3 45 163 C44.34 163 43.68 163 43 163 C43 163.66 43 164.32 43 165 C42.34 165 41.68 165 41 165 C41 166.32 41 167.64 41 169 C40.34 169 39.68 169 39 169 C39 169.66 39 170.32 39 171 C38.34 171 37.68 171 37 171 C37 172.32 37 173.64 37 175 C36.34 175 35.68 175 35 175 C35 175.66 35 176.32 35 177 C34.34 177 33.68 177 33 177 C33 178.32 33 179.64 33 181 C32.34 181 31.68 181 31 181 C31 181.66 31 182.32 31 183 C30.34 183 29.68 183 29 183 C29 184.65 29 186.3 29 188 C28.34 188 27.68 188 27 188 C27 188.66 27 189.32 27 190 C26.34 190 25.68 190 25 190 C25 191.32 25 192.64 25 194 C24.34 194 23.68 194 23 194 C23 194.66 23 195.32 23 196 C22.01 196 21.02 196 20 196 C20 197.32 20 198.64 20 200 C19.34 200 18.68 200 18 200 C18 200.66 18 201.32 18 202 C15.73744135 203.13127933 14.48212091 203.12890585 11.97265625 203.1328125 C11.18052734 203.13410156 10.38839844 203.13539063 9.57226562 203.13671875 C8.74404297 203.13285156 7.91582031 203.12898437 7.0625 203.125 C5.8259668 203.13080078 5.8259668 203.13080078 4.56445312 203.13671875 C3.77103516 203.13542969 2.97761719 203.13414062 2.16015625 203.1328125 C1.07166382 203.13112061 1.07166382 203.13112061 -0.03881836 203.12939453 C-2 203 -2 203 -5 202 C-5 201.34 -5 200.68 -5 200 C-5.66 200 -6.32 200 -7 200 C-7 198.68 -7 197.36 -7 196 C-7.66 196 -8.32 196 -9 196 C-9 195.34 -9 194.68 -9 194 C-9.66 194 -10.32 194 -11 194 C-11 193.34 -11 192.68 -11 192 C-11.66 192 -12.32 192 -13 192 C-13 190.68 -13 189.36 -13 188 C-13.66 188 -14.32 188 -15 188 C-15 187.01 -15 186.02 -15 185 C-15.66 185 -16.32 185 -17 185 C-17 183.68 -17 182.36 -17 181 C-17.66 181 -18.32 181 -19 181 C-19 180.34 -19 179.68 -19 179 C-19.66 179 -20.32 179 -21 179 C-21 177.68 -21 176.36 -21 175 C-21.66 175 -22.32 175 -23 175 C-23 174.34 -23 173.68 -23 173 C-23.66 173 -24.32 173 -25 173 C-25 172.34 -25 171.68 -25 171 C-25.66 171 -26.32 171 -27 171 C-27 169.68 -27 168.36 -27 167 C-27.99 167 -28.98 167 -30 167 C-30 166.34 -30 165.68 -30 165 C-30.66 165 -31.32 165 -32 165 C-32 163.35 -32 161.7 -32 160 C-32.66 160 -33.32 160 -34 160 C-34 159.34 -34 158.68 -34 158 C-34.66 158 -35.32 158 -36 158 C-36 156.68 -36 155.36 -36 154 C-36.66 154 -37.32 154 -38 154 C-38 153.34 -38 152.68 -38 152 C-38.66 152 -39.32 152 -40 152 C-40 150.68 -40 149.36 -40 148 C-40.66 148 -41.32 148 -42 148 C-42 147.34 -42 146.68 -42 146 C-42.66 146 -43.32 146 -44 146 C-44 144.68 -44 143.36 -44 142 C-44.66 142 -45.32 142 -46 142 C-46 141.34 -46 140.68 -46 140 C-46.66 140 -47.32 140 -48 140 C-48 138.35 -48 136.7 -48 135 C-48.66 135 -49.32 135 -50 135 C-50 133.68 -50 132.36 -50 131 C-50.66 131 -51.32 131 -52 131 C-52 130.34 -52 129.68 -52 129 C-52.99 129 -53.98 129 -55 129 C-55 127.68 -55 126.36 -55 125 C-55.66 125 -56.32 125 -57 125 C-57 124.34 -57 123.68 -57 123 C-59.64 123 -62.28 123 -65 123 C-65 122.34 -65 121.68 -65 121 C-66.32 121 -67.64 121 -69 121 C-69 120.34 -69 119.68 -69 119 C-69.66 119 -70.32 119 -71 119 C-71 118.34 -71 117.68 -71 117 C-71.66 117 -72.32 117 -73 117 C-73 115.68 -73 114.36 -73 113 C-73.66 113 -74.32 113 -75 113 C-75 108.71 -75 104.42 -75 100 C-78.63 100 -82.26 100 -86 100 C-86 99.34 -86 98.68 -86 98 C-87.32 98 -88.64 98 -90 98 C-90 97.34 -90 96.68 -90 96 C-90.66 96 -91.32 96 -92 96 C-92 94.68 -92 93.36 -92 92 C-92.66 92 -93.32 92 -94 92 C-94 87.71 -94 83.42 -94 79 C-95.98 79 -97.96 79 -100 79 C-100 78.34 -100 77.68 -100 77 C-101.65 77 -103.3 77 -105 77 C-105 76.34 -105 75.68 -105 75 C-105.66 75 -106.32 75 -107 75 C-107 67.41 -107 59.82 -107 52 C-106.34 52 -105.68 52 -105 52 C-105 51.34 -105 50.68 -105 50 C-104.01 50 -103.02 50 -102 50 C-102 49.34 -102 48.68 -102 48 C-101.34 48 -100.68 48 -100 48 C-100 46.68 -100 45.36 -100 44 C-100.66 44 -101.32 44 -102 44 C-102 42.68 -102 41.36 -102 40 C-101.34 40 -100.68 40 -100 40 C-100 37.69 -100 35.38 -100 33 C-99.34 33 -98.68 33 -98 33 C-98 32.34 -98 31.68 -98 31 C-97.34 31 -96.68 31 -96 31 C-96 30.34 -96 29.68 -96 29 C-94.68 29 -93.36 29 -92 29 C-92 28.34 -92 27.68 -92 27 C-78.14 27 -64.28 27 -50 27 C-50 26.34 -50 25.68 -50 25 C-49.34 25 -48.68 25 -48 25 C-48 24.34 -48 23.68 -48 23 C-47.34 23 -46.68 23 -46 23 C-46 22.34 -46 21.68 -46 21 C-45.34 21 -44.68 21 -44 21 C-44 20.34 -44 19.68 -44 19 C-43.34 19 -42.68 19 -42 19 C-42 18.34 -42 17.68 -42 17 C-40.68 17 -39.36 17 -38 17 C-38 16.34 -38 15.68 -38 15 C-37.34 15 -36.68 15 -36 15 C-36 14.34 -36 13.68 -36 13 C-35.34 13 -34.68 13 -34 13 C-34 12.01 -34 11.02 -34 10 C-32.68 10 -31.36 10 -30 10 C-30 9.34 -30 8.68 -30 8 C-28.35 8 -26.7 8 -25 8 C-25 7.34 -25 6.68 -25 6 C-23.02 6 -21.04 6 -19 6 C-19 5.34 -19 4.68 -19 4 C-17.02 4 -15.04 4 -13 4 C-13 3.34 -13 2.68 -13 2 C-8.71 2 -4.42 2 0 2 C0 1.34 0 0.68 0 0 Z M-17 56 C-17 56.66 -17 57.32 -17 58 C-17.66 58 -18.32 58 -19 58 C-19 58.66 -19 59.32 -19 60 C-19.66 60 -20.32 60 -21 60 C-21 61.65 -21 63.3 -21 65 C-21.66 65 -22.32 65 -23 65 C-23 66.98 -23 68.96 -23 71 C-23.66 71 -24.32 71 -25 71 C-25 76.61 -25 82.22 -25 88 C-24.34 88 -23.68 88 -23 88 C-23 89.32 -23 90.64 -23 92 C-22.34 92 -21.68 92 -21 92 C-21 93.32 -21 94.64 -21 96 C-20.34 96 -19.68 96 -19 96 C-19 96.66 -19 97.32 -19 98 C-18.34 98 -17.68 98 -17 98 C-17 89.09 -17 80.18 -17 71 C-16.34 71 -15.68 71 -15 71 C-15 66.05 -15 61.1 -15 56 C-15.66 56 -16.32 56 -17 56 Z M29 58 C29 64.93 29 71.86 29 79 C29.66 79 30.32 79 31 79 C31 85.93 31 92.86 31 100 C31.66 100 32.32 100 33 100 C33 98.68 33 97.36 33 96 C33.66 96 34.32 96 35 96 C35 94.68 35 93.36 35 92 C35.66 92 36.32 92 37 92 C37 89.69 37 87.38 37 85 C37.66 85 38.32 85 39 85 C39 81.04 39 77.08 39 73 C38.34 73 37.68 73 37 73 C37 71.02 37 69.04 37 67 C36.34 67 35.68 67 35 67 C35 65.68 35 64.36 35 63 C34.34 63 33.68 63 33 63 C33 61.35 33 59.7 33 58 C31.68 58 30.36 58 29 58 Z " fill="#F26D49" transform="translate(107,0)"/>
<path d="M0 0 C3.96 0 7.92 0 12 0 C12 0.66 12 1.32 12 2 C16.29 2 20.58 2 25 2 C25 2.66 25 3.32 25 4 C26.98 4 28.96 4 31 4 C31 4.66 31 5.32 31 6 C32.98 6 34.96 6 37 6 C37 6.66 37 7.32 37 8 C38.32 8 39.64 8 41 8 C41 8.66 41 9.32 41 10 C42.32 10 43.64 10 45 10 C45 10.99 45 11.98 45 13 C45.99 13 46.98 13 48 13 C48 13.66 48 14.32 48 15 C49.32 15 50.64 15 52 15 C52 15.66 52 16.32 52 17 C52.66 17 53.32 17 54 17 C54 17.66 54 18.32 54 19 C54.66 19 55.32 19 56 19 C56 19.66 56 20.32 56 21 C56.66 21 57.32 21 58 21 C58 21.66 58 22.32 58 23 C58.66 23 59.32 23 60 23 C60 23.66 60 24.32 60 25 C60.66 25 61.32 25 62 25 C62 25.66 62 26.32 62 27 C62.66 27 63.32 27 64 27 C64 27.66 64 28.32 64 29 C64.66 29 65.32 29 66 29 C66 30.32 66 31.64 66 33 C66.66 33 67.32 33 68 33 C68 33.66 68 34.32 68 35 C68.66 35 69.32 35 70 35 C70 36.65 70 38.3 70 40 C70.99 40 71.98 40 73 40 C73 41.32 73 42.64 73 44 C73.66 44 74.32 44 75 44 C75 66.77 75 89.54 75 113 C74.34 113 73.68 113 73 113 C73 114.32 73 115.64 73 117 C72.01 117 71.02 117 70 117 C70 118.32 70 119.64 70 121 C69.34 121 68.68 121 68 121 C68 122.32 68 123.64 68 125 C67.34 125 66.68 125 66 125 C66 126.32 66 127.64 66 129 C65.34 129 64.68 129 64 129 C64 130.32 64 131.64 64 133 C63.34 133 62.68 133 62 133 C62 133.66 62 134.32 62 135 C61.34 135 60.68 135 60 135 C60 136.65 60 138.3 60 140 C59.34 140 58.68 140 58 140 C58 141.32 58 142.64 58 144 C57.34 144 56.68 144 56 144 C56 144.66 56 145.32 56 146 C55.34 146 54.68 146 54 146 C54 147.32 54 148.64 54 150 C53.34 150 52.68 150 52 150 C52 150.66 52 151.32 52 152 C51.34 152 50.68 152 50 152 C50 153.32 50 154.64 50 156 C49.34 156 48.68 156 48 156 C48 156.66 48 157.32 48 158 C47.01 158 46.02 158 45 158 C45 159.65 45 161.3 45 163 C44.34 163 43.68 163 43 163 C43 163.66 43 164.32 43 165 C42.34 165 41.68 165 41 165 C41 166.32 41 167.64 41 169 C40.34 169 39.68 169 39 169 C39 169.66 39 170.32 39 171 C38.34 171 37.68 171 37 171 C37 172.32 37 173.64 37 175 C36.34 175 35.68 175 35 175 C35 175.66 35 176.32 35 177 C34.34 177 33.68 177 33 177 C33 178.32 33 179.64 33 181 C32.34 181 31.68 181 31 181 C31 181.66 31 182.32 31 183 C30.34 183 29.68 183 29 183 C29 184.65 29 186.3 29 188 C28.34 188 27.68 188 27 188 C27 188.66 27 189.32 27 190 C26.34 190 25.68 190 25 190 C25 191.32 25 192.64 25 194 C24.34 194 23.68 194 23 194 C23 194.66 23 195.32 23 196 C22.01 196 21.02 196 20 196 C20 197.32 20 198.64 20 200 C19.34 200 18.68 200 18 200 C18 200.66 18 201.32 18 202 C15.73744135 203.13127933 14.48212091 203.12890585 11.97265625 203.1328125 C11.18052734 203.13410156 10.38839844 203.13539063 9.57226562 203.13671875 C8.74404297 203.13285156 7.91582031 203.12898437 7.0625 203.125 C5.8259668 203.13080078 5.8259668 203.13080078 4.56445312 203.13671875 C3.77103516 203.13542969 2.97761719 203.13414062 2.16015625 203.1328125 C1.07166382 203.13112061 1.07166382 203.13112061 -0.03881836 203.12939453 C-2 203 -2 203 -5 202 C-5 201.34 -5 200.68 -5 200 C-5.66 200 -6.32 200 -7 200 C-7 198.68 -7 197.36 -7 196 C-7.66 196 -8.32 196 -9 196 C-9 195.34 -9 194.68 -9 194 C-9.66 194 -10.32 194 -11 194 C-11 193.34 -11 192.68 -11 192 C-11.66 192 -12.32 192 -13 192 C-13 190.68 -13 189.36 -13 188 C-13.66 188 -14.32 188 -15 188 C-15 187.01 -15 186.02 -15 185 C-15.66 185 -16.32 185 -17 185 C-17 183.68 -17 182.36 -17 181 C-17.66 181 -18.32 181 -19 181 C-19 180.34 -19 179.68 -19 179 C-19.66 179 -20.32 179 -21 179 C-21 177.68 -21 176.36 -21 175 C-21.66 175 -22.32 175 -23 175 C-23 174.34 -23 173.68 -23 173 C-23.66 173 -24.32 173 -25 173 C-25 172.34 -25 171.68 -25 171 C-25.66 171 -26.32 171 -27 171 C-27 169.68 -27 168.36 -27 167 C-27.99 167 -28.98 167 -30 167 C-30 166.34 -30 165.68 -30 165 C-30.66 165 -31.32 165 -32 165 C-32 163.35 -32 161.7 -32 160 C-32.66 160 -33.32 160 -34 160 C-34 159.34 -34 158.68 -34 158 C-34.66 158 -35.32 158 -36 158 C-36 156.68 -36 155.36 -36 154 C-36.66 154 -37.32 154 -38 154 C-38 153.34 -38 152.68 -38 152 C-38.66 152 -39.32 152 -40 152 C-40 150.68 -40 149.36 -40 148 C-40.66 148 -41.32 148 -42 148 C-42 147.34 -42 146.68 -42 146 C-42.66 146 -43.32 146 -44 146 C-44 144.68 -44 143.36 -44 142 C-44.66 142 -45.32 142 -46 142 C-46 141.34 -46 140.68 -46 140 C-46.66 140 -47.32 140 -48 140 C-48 138.35 -48 136.7 -48 135 C-48.66 135 -49.32 135 -50 135 C-50 133.68 -50 132.36 -50 131 C-50.66 131 -51.32 131 -52 131 C-52 130.34 -52 129.68 -52 129 C-52.99 129 -53.98 129 -55 129 C-55 127.68 -55 126.36 -55 125 C-55.66 125 -56.32 125 -57 125 C-57 124.34 -57 123.68 -57 123 C-59.64 123 -62.28 123 -65 123 C-65 122.34 -65 121.68 -65 121 C-66.32 121 -67.64 121 -69 121 C-69 120.34 -69 119.68 -69 119 C-69.66 119 -70.32 119 -71 119 C-71 118.34 -71 117.68 -71 117 C-71.66 117 -72.32 117 -73 117 C-73 115.68 -73 114.36 -73 113 C-73.66 113 -74.32 113 -75 113 C-75 108.71 -75 104.42 -75 100 C-78.63 100 -82.26 100 -86 100 C-86 99.34 -86 98.68 -86 98 C-87.32 98 -88.64 98 -90 98 C-90 97.34 -90 96.68 -90 96 C-90.66 96 -91.32 96 -92 96 C-92 94.68 -92 93.36 -92 92 C-92.66 92 -93.32 92 -94 92 C-94 87.71 -94 83.42 -94 79 C-95.98 79 -97.96 79 -100 79 C-100 78.34 -100 77.68 -100 77 C-101.65 77 -103.3 77 -105 77 C-105 76.34 -105 75.68 -105 75 C-105.66 75 -106.32 75 -107 75 C-107 67.41 -107 59.82 -107 52 C-106.34 52 -105.68 52 -105 52 C-105 51.34 -105 50.68 -105 50 C-104.01 50 -103.02 50 -102 50 C-102 49.34 -102 48.68 -102 48 C-101.34 48 -100.68 48 -100 48 C-100 46.68 -100 45.36 -100 44 C-100.66 44 -101.32 44 -102 44 C-102 42.68 -102 41.36 -102 40 C-101.34 40 -100.68 40 -100 40 C-100 37.69 -100 35.38 -100 33 C-99.34 33 -98.68 33 -98 33 C-98 32.34 -98 31.68 -98 31 C-97.34 31 -96.68 31 -96 31 C-96 30.34 -96 29.68 -96 29 C-94.68 29 -93.36 29 -92 29 C-92 28.34 -92 27.68 -92 27 C-78.14 27 -64.28 27 -50 27 C-50 26.34 -50 25.68 -50 25 C-49.34 25 -48.68 25 -48 25 C-48 24.34 -48 23.68 -48 23 C-47.34 23 -46.68 23 -46 23 C-46 22.34 -46 21.68 -46 21 C-45.34 21 -44.68 21 -44 21 C-44 20.34 -44 19.68 -44 19 C-43.34 19 -42.68 19 -42 19 C-42 18.34 -42 17.68 -42 17 C-40.68 17 -39.36 17 -38 17 C-38 16.34 -38 15.68 -38 15 C-37.34 15 -36.68 15 -36 15 C-36 14.34 -36 13.68 -36 13 C-35.34 13 -34.68 13 -34 13 C-34 12.01 -34 11.02 -34 10 C-32.68 10 -31.36 10 -30 10 C-30 9.34 -30 8.68 -30 8 C-28.35 8 -26.7 8 -25 8 C-25 7.34 -25 6.68 -25 6 C-23.02 6 -21.04 6 -19 6 C-19 5.34 -19 4.68 -19 4 C-17.02 4 -15.04 4 -13 4 C-13 3.34 -13 2.68 -13 2 C-8.71 2 -4.42 2 0 2 C0 1.34 0 0.68 0 0 Z M-37 21 C-37.90431763 22.09260132 -37.90431763 22.09260132 -38.8269043 23.20727539 C-42.03670437 26.97533397 -44.39438828 29.61754818 -49.31469727 30.78955078 C-53.04960381 31.03496662 -56.6964546 31.04736068 -60.4375 30.9375 C-62.95698642 30.91844186 -65.47653843 30.9063494 -67.99609375 30.90234375 C-69.10138428 30.87648193 -70.2066748 30.85062012 -71.34545898 30.82397461 C-74.1568438 30.71766312 -74.1568438 30.71766312 -76 33 C-76.50010524 35.95769177 -76.50010524 35.95769177 -76 39 C-73.54085707 41.68348995 -71.99966932 42.00003772 -68.34887695 42.41650391 C-66.8956174 42.4510356 -65.44193703 42.47018807 -63.98828125 42.4765625 C-62.83503609 42.49993179 -62.83503609 42.49993179 -61.65849304 42.52377319 C-59.20983845 42.57120393 -56.76146831 42.59903666 -54.3125 42.625 C-51.85301881 42.66146163 -49.39369998 42.70201697 -46.93437195 42.74765015 C-45.40534469 42.77493069 -43.87619785 42.7962585 -42.34700012 42.81118774 C-37.11067823 42.88932177 -37.11067823 42.88932177 -36 44 C-35.875 46.5 -35.875 46.5 -36 49 C-37.77197257 50.77197257 -40.34138623 50.14337439 -42.74145508 50.15771484 C-44.58390556 50.17310806 -44.58390556 50.17310806 -46.46357727 50.18881226 C-47.45458655 50.19396914 -47.45458655 50.19396914 -48.46561623 50.19923019 C-50.52939679 50.21099373 -52.59296566 50.2304407 -54.65666199 50.25234985 C-60.52567488 50.31404365 -66.39466858 50.36798162 -72.26391602 50.40136719 C-75.85085892 50.42232271 -79.43742031 50.45763652 -83.02414513 50.50212479 C-84.39121696 50.51628301 -85.75835635 50.52500685 -87.12549782 50.52817917 C-89.04053479 50.53309189 -90.95548956 50.55786694 -92.87036133 50.58349609 C-94.50464836 50.59562637 -94.50464836 50.59562637 -96.17195129 50.60800171 C-99.35305744 51.0489376 -100.75752658 51.72329528 -103 54 C-103.50010524 57.04230823 -103.50010524 57.04230823 -103 60 C-100.46134387 62.53865613 -99.55075621 62.25901169 -96.03125 62.28710938 C-94.99677734 62.30052368 -93.96230469 62.31393799 -92.89648438 62.32775879 C-91.21522461 62.33567444 -91.21522461 62.33567444 -89.5 62.34375 C-88.35337891 62.3583728 -87.20675781 62.37299561 -86.02539062 62.38806152 C-82.35029585 62.43470042 -78.67525666 62.46882937 -75 62.5 C-70.16646171 62.54099426 -65.33331412 62.59461098 -60.5 62.65625 C-58.81874023 62.66416565 -58.81874023 62.66416565 -57.10351562 62.67224121 C-56.06904297 62.68565552 -55.03457031 62.69906982 -53.96875 62.71289062 C-53.05544922 62.72018188 -52.14214844 62.72747314 -51.20117188 62.73498535 C-49 63 -49 63 -47 65 C-46.8125 67.5625 -46.8125 67.5625 -47 70 C-48.95529441 71.95529441 -52.72024007 71.16044172 -55.39453125 71.17578125 C-56.92253974 71.19898477 -58.45053457 71.22310233 -59.97851562 71.24804688 C-62.39470474 71.28314236 -64.81039389 71.31248829 -67.22680664 71.32592773 C-69.55416977 71.34141648 -71.88005823 71.38163566 -74.20703125 71.42578125 C-74.92695755 71.42387283 -75.64688385 71.42196442 -76.3886261 71.41999817 C-79.80871771 71.50328602 -81.70894142 71.78572916 -84.49487305 73.83666992 C-86.32085031 75.9975238 -86.32085031 75.9975238 -85.875 79.1875 C-85.58625 80.115625 -85.2975 81.04375 -85 82 C-81.59187116 83.70406442 -77.69406936 83.20143278 -73.94140625 83.24609375 C-72.09309413 83.27902676 -70.24478695 83.3122385 -68.39648438 83.34570312 C-65.47553863 83.39316819 -62.55461373 83.43760583 -59.63354492 83.47680664 C-56.81928634 83.51646415 -54.00543923 83.56801896 -51.19140625 83.62109375 C-50.31633926 83.6295079 -49.44127228 83.63792206 -48.53968811 83.64659119 C-47.72551926 83.66323318 -46.9113504 83.67987518 -46.07250977 83.69702148 C-44.99901024 83.71248268 -44.99901024 83.71248268 -43.90382385 83.72825623 C-42 84 -42 84 -39 86 C-39.33 87.98 -39.66 89.96 -40 92 C-40.67579102 92.0093457 -41.35158203 92.01869141 -42.04785156 92.02832031 C-45.1159711 92.08207301 -48.18257387 92.16570992 -51.25 92.25 C-52.31347656 92.26417969 -53.37695312 92.27835937 -54.47265625 92.29296875 C-55.49746094 92.32519531 -56.52226563 92.35742188 -57.578125 92.390625 C-58.99206543 92.4220459 -58.99206543 92.4220459 -60.43457031 92.45410156 C-63.73012864 93.15536426 -64.97216379 94.34931983 -67 97 C-67.01370127 100.17037671 -67.01370127 100.17037671 -66 103 C-63.97429162 104.25166756 -63.97429162 104.25166756 -61.3828125 103.61328125 C-57.27526639 103.23404738 -54.85261079 103.43790316 -51 105 C-46.43674311 109.96651494 -43.60269872 116.41331797 -40.47509766 122.33154297 C-38.29433907 126.2765432 -35.76571229 129.91490995 -33.125 133.5625 C-32.63217529 134.24860352 -32.13935059 134.93470703 -31.6315918 135.64160156 C-30.09618432 137.76735997 -28.54923895 139.88430557 -27 142 C-26.46149414 142.74040527 -25.92298828 143.48081055 -25.36816406 144.24365234 C-18.47422043 153.71930342 -11.45274261 163.09849776 -4.375 172.4375 C-3.69985352 173.33178711 -3.02470703 174.22607422 -2.32910156 175.14746094 C-1.69198242 175.98438477 -1.05486328 176.82130859 -0.3984375 177.68359375 C0.16182129 178.42150146 0.72208008 179.15940918 1.29931641 179.91967773 C3.07687105 182.09403075 4.98309554 184.0478282 7 186 C7.57105469 185.19820312 8.14210938 184.39640625 8.73046875 183.5703125 C13.04906726 177.51285739 17.38116643 171.4657816 21.74414062 165.44018555 C28.0969387 156.66514546 34.42150579 147.8716923 40.61523438 138.98339844 C41.50043035 137.71553312 42.38939404 136.45028467 43.28320312 135.18847656 C57.41826833 115.19553568 75.17959453 89.13295882 71.5 63.51953125 C68.28825758 45.61771694 60.34259853 30.13771977 45.47265625 19.12890625 C33.43150164 11.09571128 21.0780034 6.62432171 6.625 6.75 C5.30242187 6.73839844 5.30242187 6.73839844 3.953125 6.7265625 C-11.08049674 6.77064937 -25.1051148 11.71777035 -37 21 Z " fill="#0B0808" transform="translate(107,0)"/>
<path d="M0 0 C7.94001454 6.56785669 13.14765791 14.81929814 15 25 C16.30239121 39.50471307 12.47612058 48.95829182 3.33984375 60.0078125 C-3.35513504 67.32005884 -11.2140188 70.52648478 -21 71 C-22.80468872 67.39062256 -22.85034953 63.91515096 -22 60 C-19.66952375 56.34302498 -16.88377294 53.22519215 -14 50 C-12.4690825 46.938165 -12.97634765 43.77801987 -13.0859375 40.4296875 C-13.11779648 39.29710007 -13.11779648 39.29710007 -13.15029907 38.14163208 C-13.19661236 36.53933277 -13.24554472 34.93710737 -13.296875 33.33496094 C-13.37402353 30.90574652 -13.44158843 28.47640896 -13.5078125 26.046875 C-13.55410923 24.4869619 -13.600967 22.92706532 -13.6484375 21.3671875 C-13.66828705 20.64916962 -13.6881366 19.93115173 -13.70858765 19.19137573 C-13.86839138 14.40775054 -14.34803175 9.74225323 -15 5 C-15.99 5 -16.98 5 -18 5 C-18.33 14.24 -18.66 23.48 -19 33 C-20.32 33 -21.64 33 -23 33 C-23.66 23.76 -24.32 14.52 -25 5 C-25.99 5 -26.98 5 -28 5 C-28.66 14.24 -29.32 23.48 -30 33 C-31.32 33 -32.64 33 -34 33 C-34.33 23.76 -34.66 14.52 -35 5 C-35.99 5 -36.98 5 -38 5 C-39.55119585 11.67405273 -39.61124667 18.54280089 -39.8828125 25.36328125 C-39.9623631 27.15316964 -40.05931833 28.94235249 -40.171875 30.73046875 C-41.23980429 41.81619091 -41.23980429 41.81619091 -38.21484375 52.1640625 C-36.78742915 53.75007872 -35.31269775 55.29533182 -33.78515625 56.78515625 C-30.96683789 60.28184446 -31.33591747 63.52147138 -31.62109375 67.84765625 C-32 70 -32 70 -33 71 C-42.14566654 71 -49.33285352 67.11456994 -56.14453125 61.109375 C-64.87734882 51.7487078 -68.58995888 40.34148766 -68.375 27.69921875 C-67.26765531 16.77572477 -62.02620054 6.96846164 -53.57421875 0 C-36.53511887 -12.410877 -17.08247359 -12.06821517 0 0 Z M-50 16 C-50 16.66 -50 17.32 -50 18 C-50.66 18 -51.32 18 -52 18 C-52 18.66 -52 19.32 -52 20 C-52.66 20 -53.32 20 -54 20 C-54 21.65 -54 23.3 -54 25 C-54.66 25 -55.32 25 -56 25 C-56 26.98 -56 28.96 -56 31 C-56.66 31 -57.32 31 -58 31 C-58 36.61 -58 42.22 -58 48 C-57.34 48 -56.68 48 -56 48 C-56 49.32 -56 50.64 -56 52 C-55.34 52 -54.68 52 -54 52 C-54 53.32 -54 54.64 -54 56 C-53.34 56 -52.68 56 -52 56 C-52 56.66 -52 57.32 -52 58 C-51.34 58 -50.68 58 -50 58 C-50 49.09 -50 40.18 -50 31 C-49.34 31 -48.68 31 -48 31 C-48 26.05 -48 21.1 -48 16 C-48.66 16 -49.32 16 -50 16 Z M-4 18 C-4 24.93 -4 31.86 -4 39 C-3.34 39 -2.68 39 -2 39 C-2 45.93 -2 52.86 -2 60 C-1.34 60 -0.68 60 0 60 C0 58.68 0 57.36 0 56 C0.66 56 1.32 56 2 56 C2 54.68 2 53.36 2 52 C2.66 52 3.32 52 4 52 C4 49.69 4 47.38 4 45 C4.66 45 5.32 45 6 45 C6 41.04 6 37.08 6 33 C5.34 33 4.68 33 4 33 C4 31.02 4 29.04 4 27 C3.34 27 2.68 27 2 27 C2 25.68 2 24.36 2 23 C1.34 23 0.68 23 0 23 C0 21.35 0 19.7 0 18 C-1.32 18 -2.64 18 -4 18 Z " fill="#0F0C0C" transform="translate(140,40)"/>
<path d="M0 0 C0.33 0 0.66 0 1 0 C-0.07648754 30.14165117 -25.31647435 60.36806044 -41.69799805 84.26147461 C-45.74523581 90.16897728 -49.73707726 96.09991649 -53.6015625 102.12890625 C-54.33008722 103.25647078 -55.05892165 104.38383528 -55.78808594 105.51098633 C-57.15205295 107.62794355 -58.50231392 109.75381156 -59.83691406 111.8894043 C-60.4450293 112.82824463 -61.05314453 113.76708496 -61.6796875 114.734375 C-62.20288574 115.56163086 -62.72608398 116.38888672 -63.26513672 117.24121094 C-65 119 -65 119 -67.51196289 119.50268555 C-70 119 -70 119 -71.66235352 117.43383789 C-72.38829712 116.33930298 -72.38829712 116.33930298 -73.12890625 115.22265625 C-73.68223633 114.40853271 -74.23556641 113.59440918 -74.80566406 112.75561523 C-75.38541992 111.86688721 -75.96517578 110.97815918 -76.5625 110.0625 C-77.81840887 108.20011503 -79.07492813 106.33814156 -80.33203125 104.4765625 C-80.95416504 103.54360352 -81.57629883 102.61064453 -82.21728516 101.64941406 C-84.20992709 98.68801304 -86.26912326 95.78222421 -88.35205078 92.8840332 C-116.68176345 53.43715944 -116.68176345 53.43715944 -123.90161133 38.08251953 C-124.93396076 35.87607298 -124.93396076 35.87607298 -127 33 C-129.85198823 32.12939384 -129.85198823 32.12939384 -132.9375 32.375 C-138.68119266 32.22071277 -138.68119266 32.22071277 -142.25 29.75 C-144.12528808 26.80311874 -144.48807186 25.41650299 -144 22 C-143.4225 22.639375 -142.845 23.27875 -142.25 23.9375 C-138.58500582 26.26336169 -137.42320211 26.09698366 -133.2265625 26.015625 C-127.67077611 26.41037384 -127.67077611 26.41037384 -124.93554688 28.81469727 C-123.12235377 31.40018609 -121.60943976 34.0252126 -120.125 36.8125 C-118.94443476 38.83846722 -117.7594329 40.86185477 -116.5703125 42.8828125 C-115.98024414 43.90922852 -115.39017578 44.93564453 -114.78222656 45.99316406 C-112.07940235 50.55316173 -109.07091444 54.8700065 -106 59.1875 C-105.42338623 60.00436279 -104.84677246 60.82122559 -104.25268555 61.6628418 C-99.08983802 68.94330011 -93.79296396 76.12428042 -88.4765625 83.29296875 C-84.32518774 88.89744215 -80.24693551 94.55402267 -76.17358398 100.21533203 C-75.66899658 100.9164209 -75.16440918 101.61750977 -74.64453125 102.33984375 C-74.18127441 102.98550293 -73.71801758 103.63116211 -73.24072266 104.29638672 C-72.2343193 105.67826051 -71.1908398 107.03307874 -70.13671875 108.37890625 C-69 110 -69 110 -69 112 C-64.50727471 107.87132612 -61.29812557 103.25922077 -57.9375 98.1875 C-53.88452863 92.15815387 -49.74795637 86.2532313 -45.3125 80.5 C-16.79637766 43.1873364 -16.79637766 43.1873364 0 0 Z " fill="#F0F0F0" transform="translate(181,82)"/>
<path d="M0 0 C0.62543701 0.64743164 1.25087402 1.29486328 1.89526367 1.96191406 C6.18697411 4.77918219 9.64555806 4.60245331 14.67578125 4.609375 C15.6009404 4.62591125 16.52609955 4.64244751 17.47929382 4.65948486 C20.42376365 4.70792996 23.36771713 4.72932811 26.3125 4.75 C28.31317697 4.77816259 30.31382992 4.80809042 32.31445312 4.83984375 C37.20959291 4.9136881 42.10444663 4.96328414 47 5 C47 6.32 47 7.64 47 9 C41.11018515 9.12375961 35.22112988 9.21441514 29.33032227 9.2746582 C27.32725844 9.2997755 25.32428602 9.33387595 23.3215332 9.37719727 C20.43938634 9.43797188 17.55845279 9.46623732 14.67578125 9.48828125 C13.33644279 9.52699089 13.33644279 9.52699089 11.970047 9.56648254 C7.51742235 9.56848322 5.58445408 9.42929823 1.89526367 6.71948242 C0 4 0 4 0 0 Z " fill="#F6F6F6" transform="translate(18,83)"/>
<path d="M0 0 C0.58483154 0.64743164 1.16966309 1.29486328 1.7722168 1.96191406 C6.58845462 5.00298156 11.0551261 4.60307327 16.64453125 4.609375 C18.33191658 4.63417938 18.33191658 4.63417938 20.0533905 4.65948486 C23.6398157 4.70799783 27.22581674 4.72934409 30.8125 4.75 C33.24676617 4.77815677 35.68101255 4.80808378 38.11523438 4.83984375 C44.07674583 4.91375782 50.03813784 4.9653811 56 5 C56.495 6.485 56.495 6.485 57 8 C49.82843832 8.07609679 42.65698086 8.12861962 35.48510742 8.16479492 C33.04561472 8.17987654 30.6061491 8.20034469 28.16674805 8.22631836 C24.65927441 8.26272812 21.15215946 8.27973289 17.64453125 8.29296875 C16.55477493 8.30845261 15.46501862 8.32393646 14.34223938 8.33988953 C4.69319967 8.34203163 4.69319967 8.34203163 1 5 C0.1875 2.3125 0.1875 2.3125 0 0 Z " fill="#EEEEEE" transform="translate(1,62)"/>
<path d="M0 0 C2.56231382 0.07919879 3.85022116 0.19671154 6.125 1.4375 C7.54409947 4.27569894 6.84256606 6.32224676 6.0625 9.3125 C4.48327594 10.89172406 2.86806126 10.520159 0.6875 10.5625 C-0.10398437 10.58828125 -0.89546875 10.6140625 -1.7109375 10.640625 C-3.9375 10.3125 -3.9375 10.3125 -5.73828125 8.95703125 C-6.9375 7.3125 -6.9375 7.3125 -6.75 4.75 C-5.36351118 0.59053353 -4.41600087 0.35047626 0 0 Z " fill="#F6D85D" transform="translate(20.9375,30.6875)"/>
<path d="M0 0 C0.33 0 0.66 0 1 0 C0.47732047 14.63502698 -7.34011294 28.28874347 -14 41 C-15.12719727 39.27636719 -15.12719727 39.27636719 -16 37 C-15.29663086 34.87207031 -15.29663086 34.87207031 -13.96484375 32.578125 C-13.24808472 31.29748169 -13.24808472 31.29748169 -12.5168457 29.9909668 C-11.99566162 29.08644775 -11.47447754 28.18192871 -10.9375 27.25 C-6.03047633 18.37881047 -2.50989979 9.8038627 0 0 Z " fill="#DBDBDB" transform="translate(181,82)"/>
<path d="M0 0 C0.66 0 1.32 0 2 0 C2 1.98 2 3.96 2 6 C2.66 6 3.32 6 4 6 C4 7.98 4 9.96 4 12 C3.34 12 2.68 12 2 12 C2 14.64 2 17.28 2 20 C1.34 20 0.68 20 0 20 C0 13.4 0 6.8 0 0 Z " fill="#000000" transform="translate(0,106)"/>
<path d="M0 0 C0.87056734 2.41286875 1.18561853 3.55539942 0.1796875 5.96484375 C-2.5635332 10.11252774 -5.32569507 13.64063549 -9 17 C-8.6517604 11.07992681 -7.34252158 8.9289481 -3 5 C-1.94712186 3.36622358 -0.9272999 1.70818403 0 0 Z " fill="#EDEDED" transform="translate(130,91)"/>
<path d="M0 0 C0.99 1.485 0.99 1.485 2 3 C2.99139736 4.36047736 3.99198931 5.7142857 5 7.0625 C5.7734375 8.10083984 5.7734375 8.10083984 6.5625 9.16015625 C8.01507033 11.09630394 8.01507033 11.09630394 10 13 C10.125 15.625 10.125 15.625 10 18 C4.17131604 12.49513181 0.6534299 8.16787373 0 0 Z " fill="#E9E9E9" transform="translate(95,89)"/>
<path d="M0 0 C0.6875 1.75 0.6875 1.75 1 4 C-0.4375 6.25 -0.4375 6.25 -2 8 C-2 4.23312136 -1.76462683 3.08809695 0 0 Z M-7 9 C-6.34 9.33 -5.68 9.66 -5 10 C-5.99 10.66 -6.98 11.32 -8 12 C-7.67 11.01 -7.34 10.02 -7 9 Z " fill="#DEDEDE" transform="translate(130,91)"/>
</svg>
