<?xml version="1.0" standalone="no"?>
<!DOCTYPE svg PUBLIC "-//W3C//DTD SVG 20010904//EN"
 "http://www.w3.org/TR/2001/REC-SVG-20010904/DTD/svg10.dtd">
<svg version="1.0" xmlns="http://www.w3.org/2000/svg"
 width="182.000000pt" height="203.000000pt" viewBox="0 0 182.000000 203.000000"
 preserveAspectRatio="xMidYMid meet">
<metadata>
Created by potrace 1.16, written by Peter Selinger 2001-2019
</metadata>
<g transform="translate(0.000000,203.000000) scale(0.100000,-0.100000)"
fill="#000000" stroke="none">
<path d="M1070 2020 c0 -6 -28 -10 -65 -10 -37 0 -65 -4 -65 -10 0 -5 -13 -10
-30 -10 -16 0 -30 -4 -30 -10 0 -5 -13 -10 -30 -10 -16 0 -30 -4 -30 -10 0 -5
-11 -10 -25 -10 -14 0 -25 -4 -25 -10 0 -5 -9 -10 -20 -10 -11 0 -20 -5 -20
-10 0 -14 -46 -60 -60 -60 -6 0 -33 -22 -60 -50 l-49 -50 -205 0 c-131 0 -206
-4 -206 -10 0 -5 -7 -10 -15 -10 -27 0 -65 -47 -65 -80 0 -16 -4 -30 -10 -30
-5 0 -10 -9 -10 -20 0 -11 5 -20 10 -20 15 0 12 -29 -4 -46 -8 -8 -17 -14 -21
-14 -25 0 -33 -33 -34 -134 -1 -115 7 -136 48 -136 12 0 21 -4 21 -10 0 -5 14
-10 30 -10 l30 0 0 -65 c0 -37 4 -65 10 -65 6 0 10 -7 10 -16 0 -20 24 -44 44
-44 9 0 16 -4 16 -10 0 -5 25 -10 55 -10 l55 0 0 -65 c0 -37 4 -65 10 -65 6 0
10 -7 10 -15 0 -20 45 -65 65 -65 8 0 15 -4 15 -10 0 -5 16 -10 36 -10 38 0
64 -18 64 -44 0 -9 5 -16 11 -16 16 0 39 -26 39 -44 0 -9 5 -16 10 -16 6 0 10
-10 10 -23 0 -12 9 -29 20 -37 11 -8 20 -21 20 -30 0 -9 9 -22 20 -30 11 -8
20 -21 20 -30 0 -9 9 -22 20 -30 11 -8 20 -21 20 -30 0 -9 9 -22 20 -30 11 -8
20 -23 20 -33 0 -20 22 -47 39 -47 6 0 11 -7 11 -16 0 -9 13 -29 30 -44 16
-15 30 -34 30 -42 0 -7 9 -20 20 -28 11 -8 20 -22 20 -32 0 -10 5 -18 10 -18
6 0 10 -7 10 -15 0 -8 5 -15 10 -15 6 0 10 -7 10 -16 0 -9 13 -29 30 -44 16
-15 30 -33 30 -40 0 -32 34 -45 129 -48 84 -3 99 -1 119 16 12 11 22 27 22 36
0 9 5 16 11 16 15 0 39 26 39 42 0 8 9 20 20 28 11 8 20 24 20 35 0 11 9 27
20 35 11 8 20 21 20 30 0 9 9 22 20 30 11 8 20 21 20 30 0 9 9 22 20 30 11 8
20 21 20 30 0 9 9 22 20 30 11 8 20 25 20 37 0 13 5 23 11 23 15 0 39 26 39
42 0 8 9 20 20 28 11 8 20 21 20 30 0 9 9 22 20 30 11 8 20 22 20 32 0 10 5
18 10 18 6 0 10 10 10 23 0 12 9 29 20 37 11 8 20 22 20 32 0 10 5 18 10 18 6
0 10 9 10 20 0 11 5 20 10 20 6 0 10 9 10 20 0 11 5 20 10 20 6 0 10 9 10 20
0 11 7 20 15 20 8 0 15 9 15 20 0 11 4 20 9 20 6 0 10 134 10 345 1 219 -3
345 -9 345 -6 0 -10 9 -10 20 0 11 -7 20 -15 20 -9 0 -15 9 -15 23 0 12 -9 29
-20 37 -11 8 -20 20 -20 27 0 19 -146 163 -165 163 -8 0 -15 5 -15 10 0 6 -7
10 -15 10 -8 0 -15 7 -15 15 0 8 -9 15 -20 15 -11 0 -20 5 -20 10 0 6 -9 10
-20 10 -11 0 -20 5 -20 10 0 6 -13 10 -30 10 -16 0 -30 5 -30 10 0 6 -13 10
-30 10 -16 0 -30 5 -30 10 0 6 -28 10 -65 10 -37 0 -65 4 -65 10 0 6 -27 10
-60 10 -33 0 -60 -4 -60 -10z m167 -71 l63 -11 0 -35 0 -35 -35 21 -35 20 0
-96 0 -96 -50 7 c-165 22 -340 -75 -417 -232 -37 -73 -38 -80 -38 -181 0 -95
3 -112 28 -162 52 -106 145 -190 250 -225 50 -17 51 -17 70 7 30 37 19 101
-26 147 -60 63 -59 62 -47 285 6 111 13 208 15 215 3 6 11 12 20 12 13 0 15
-21 15 -137 0 -140 6 -170 32 -160 17 6 28 87 28 198 0 76 6 99 26 99 19 0 24
-28 27 -170 2 -121 3 -125 25 -128 22 -3 22 -1 23 100 0 57 4 123 8 148 6 29
9 -43 10 -201 1 -234 0 -247 -19 -264 -44 -39 -45 -141 -2 -160 22 -10 22 -13
22 -192 0 -101 3 -183 6 -183 3 0 19 9 35 21 l29 20 0 -85 0 -86 -82 -115
c-44 -63 -84 -115 -87 -114 -20 2 -460 621 -543 762 l-28 47 -64 0 c-56 0 -67
3 -80 22 -20 28 -20 43 0 62 12 13 38 16 122 16 81 0 113 4 130 16 26 18 28
50 5 76 -15 16 -35 18 -221 18 -177 0 -208 2 -224 17 -22 20 -23 46 -2 67 13
13 43 16 177 16 131 0 167 3 185 16 28 20 30 69 3 84 -12 6 -118 10 -273 10
-271 0 -278 1 -278 50 0 50 3 50 334 50 274 0 312 2 328 17 20 18 23 49 8 73
-7 12 -45 16 -196 20 -161 4 -188 7 -198 22 -7 11 -7 26 0 45 l9 28 142 3 141
3 61 58 c88 85 239 159 356 174 62 8 151 7 212 -4z m-317 -554 c0 -43 -4 -75
-10 -75 -6 0 -10 -52 -10 -135 0 -74 -3 -135 -6 -135 -11 0 -34 29 -34 44 0 9
-4 16 -10 16 -5 0 -10 9 -10 20 0 11 -4 20 -10 20 -6 0 -10 35 -10 85 0 50 4
85 10 85 6 0 10 14 10 30 0 17 5 30 10 30 6 0 10 9 10 20 0 20 37 68 53 69 4
1 7 -33 7 -74z m480 30 c0 -14 5 -25 10 -25 6 0 10 -9 10 -20 0 -11 5 -20 10
-20 6 0 10 -13 10 -30 0 -16 5 -30 10 -30 6 0 10 -27 10 -60 0 -33 -4 -60 -10
-60 -5 0 -10 -16 -10 -35 0 -19 -4 -35 -10 -35 -5 0 -10 -9 -10 -20 0 -11 -4
-20 -10 -20 -5 0 -10 -9 -10 -20 0 -11 -4 -20 -10 -20 -6 0 -10 42 -10 105 0
63 -4 105 -10 105 -6 0 -10 42 -10 105 0 98 1 105 20 105 15 0 20 -7 20 -25z
m-1089 -65 c197 -4 263 -8 267 -17 3 -10 -51 -13 -248 -13 -262 0 -298 5 -314
45 -12 31 -6 37 13 14 19 -24 21 -24 282 -29z m133 -212 c180 -3 211 -5 211
-18 0 -13 -30 -15 -195 -18 -107 -1 -205 0 -217 3 -29 7 -63 44 -63 68 0 18 3
17 26 -6 l26 -27 212 -2z m1341 -85 c-55 -164 -169 -359 -453 -778 -140 -205
-182 -260 -199 -260 -16 0 -52 44 -159 195 -163 231 -323 473 -388 588 l-48
82 -59 0 c-50 0 -64 4 -84 25 -14 13 -25 35 -25 49 l0 25 25 -24 c20 -21 34
-25 83 -25 l60 0 66 -107 c37 -60 111 -170 164 -245 175 -247 357 -497 363
-497 9 -1 374 513 464 654 85 134 191 340 202 394 4 20 9 29 11 19 1 -9 -9
-51 -23 -95z"/>
</g>
</svg>
